<?xml version="1.0" encoding="UTF-8" standalone="no"?><!-- Generator: Gravit.io --><svg xmlns="http://www.w3.org/2000/svg" xmlns:xlink="http://www.w3.org/1999/xlink" style="isolation:isolate" viewBox="0 0 250 250" width="250pt" height="250pt"><defs><clipPath id="_clipPath_EXgL4TN506UWnLsVM6Fqsp2UokHnHW5k"><rect width="250" height="250"/></clipPath></defs><g clip-path="url(#_clipPath_EXgL4TN506UWnLsVM6Fqsp2UokHnHW5k)"><clipPath id="_clipPath_TF8SWc30bZjaKI08EREBekrPUxjwuCzR"><rect x="-12" y="-12" width="274" height="274" transform="matrix(1,0,0,1,0,0)" fill="rgb(255,255,255)"/></clipPath><g clip-path="url(#_clipPath_TF8SWc30bZjaKI08EREBekrPUxjwuCzR)"><g><path d=" M 88.275 141.114 C 86.228 140.048 82.676 138.35 80.205 126.744 C 79.278 122.387 71.723 108.119 69.686 109.445 C 68.846 109.992 74.051 116.535 73.582 118.693 C 72.297 118.552 72.649 117.335 69.219 116.309 C 64.507 114.899 64.344 116.981 62.472 117.371 C 60.924 110.499 65.993 112.68 61.741 93.903 C 59.305 83.145 59.02 69.943 60.452 66.357 C 62.415 66.548 70.772 76.172 74.161 80.53 C 74.636 81.141 77.056 84.289 77.114 84.366 C 77.461 84.82 79.929 88.086 79.986 88.163 C 82.103 90.991 89.909 101.93 90.2 102.574 C 88.524 103.37 87.709 102.301 87.599 103.088 C 87.51 103.727 89.87 104.066 92.761 109.29 C 92.59 109.276 83.127 107.844 84.222 109.977 C 84.871 111.245 93.647 110.829 97.865 121.412 C 99.742 126.122 99.761 129.112 101.818 131.701 C 105.69 136.573 111.804 136.33 112.076 135.978 C 113.143 134.591 107.331 131.95 107.853 128.31 C 108.097 126.608 110.34 125.159 110.832 124.573 C 110.437 124.068 107.731 123.227 106.027 126.915 C 104.454 130.319 107.031 131.918 106.772 132.548 C 106.398 133.452 102.519 131.927 100.882 117.347 C 100.442 113.427 98.36 110.629 97.607 109.002 C 97.23 108.19 94.56 103.852 89.344 96.573 C 89.036 96.143 86.845 93.058 86.794 92.986 C 72.11 72.098 63.046 64.391 61.834 63.429 C 53.041 56.449 51.842 54.465 51.684 54.241 C 49.358 50.945 48.739 48.679 47.867 47.133 C 46.997 45.593 44.985 40.387 44.339 39.908 C 42.866 40.817 42.853 51.941 41.028 61.281 C 40.87 62.088 38.304 84.962 36.484 102.127 C 36.45 102.453 34.95 116.146 34.699 118.429 C 34.521 120.04 34.529 119.97 34.506 120.18 L 33.237 131.392 C 32.109 141.389 30.802 150.458 29.874 151.231 C 28.692 149.665 28.245 135.295 28.228 134.968 C 28.223 134.873 28.052 131.259 28.005 130.212 C 27.999 130.084 27.724 123.924 27.718 123.796 C 27.674 122.779 27.474 118.203 27.443 117.44 C 27.279 113.364 27.24 110.813 27.227 108.943 C 27.223 108.342 27.213 104.033 27.213 103.933 C 27.213 103.617 27.227 99.303 27.233 98.671 C 27.256 95.775 27.34 92.337 27.448 89.624 C 27.453 89.503 27.656 84.9 27.716 83.568 C 27.828 81.082 28.169 71.755 28.381 68.028 L 28.857 59.63 C 30.101 37.691 32.544 26.237 38.548 23.003 C 46.413 18.767 50.236 24.768 60.897 42.678 C 62.984 46.184 69.198 57.121 69.347 57.426 C 73.524 65.957 79.626 71.975 86.117 81.917 C 86.376 82.313 92.516 91.342 98.669 102.02 C 108.47 119.029 103.24 119.162 105.231 121.845 C 108.316 120.903 105.895 108.907 101.75 101.991 C 83.378 71.327 88.839 81.619 78.815 67.326 C 73.444 59.667 60.011 48.993 76.114 42.856 C 85.927 39.116 87.935 37.761 99.742 39.486 C 115.834 41.838 119.315 43.588 128.582 42.893 C 146.775 41.527 156.178 35.451 170.006 41.071 C 178.479 44.515 185.786 48.099 178.318 58.219 C 175.324 62.276 168.857 70.426 168.646 70.661 C 168.27 71.078 158.079 84.628 152.979 94.022 C 151.388 96.952 146.63 104.08 145.557 107.237 C 142.82 115.291 142.86 121.111 144.764 121.881 C 147.199 117.107 138.05 117.774 169.308 74.229 C 190.51 44.69 170.535 71.858 192.775 36.606 C 192.879 36.44 195.094 32.973 195.414 32.479 C 200.413 24.753 203.029 21.237 207.924 21.823 C 216.596 22.86 218.798 33.738 220.177 48.228 C 220.186 48.313 220.553 52.372 220.56 52.456 C 220.679 53.83 220.868 56.322 220.899 56.752 C 220.911 56.919 221.119 60.007 221.176 60.926 C 221.182 61.025 221.428 65.27 221.46 65.862 C 221.496 66.535 221.742 71.357 221.747 71.469 C 221.769 71.926 222.211 81.519 222.27 82.89 C 222.28 83.114 222.498 88.377 222.502 88.489 L 222.737 95.117 C 222.759 95.755 222.782 98.391 222.784 99.109 C 222.785 99.231 222.788 105.084 222.787 105.207 C 222.786 105.763 222.757 109.752 222.756 109.845 C 222.746 110.605 222.698 113.949 222.565 117.443 C 222.561 117.536 222.396 121.352 222.36 122.097 L 221.902 131.568 C 221.835 132.916 221.697 135.735 221.581 137.694 C 221.48 139.408 221.313 141.891 221.308 141.977 C 220.945 147.285 220.786 149.614 220.164 151.41 C 219.129 150.097 218.403 144.641 217.518 137.732 C 217.476 137.405 216.998 133.486 216.849 132.288 C 216.821 132.065 216.717 131.262 216.706 131.173 C 216.673 130.897 216.509 129.427 216.181 126.579 C 214.593 112.816 210.633 72.978 207.483 50.103 C 207.43 49.715 207.26 48.254 206.884 45.24 C 206.174 39.562 206.29 40.188 205.578 39.895 C 204.742 40.586 205.833 40.022 199.619 52.079 C 195.913 59.27 194.244 57.002 185.192 66.255 L 179.719 71.849 C 177.765 73.846 172.079 80.104 158.43 99.544 C 156.748 101.94 152.702 108.077 150.805 112.037 C 148.706 116.42 149.423 116.71 148.359 122.315 C 146.482 132.192 144.019 132.859 143.317 132.863 C 143.366 131.644 146.079 128.709 142.855 125.255 C 141.173 123.453 139.255 124.191 139.201 124.486 C 139.079 125.148 142.795 126.681 141.978 129.369 C 141.028 132.496 137.492 135.195 137.934 136.017 C 138.198 136.509 142.871 135.782 144.77 134.607 C 148.059 132.575 149.229 130.317 149.763 128.703 C 151.559 123.274 152.181 118.255 156.927 114.525 C 162.09 110.467 165.426 110.678 165.766 109.958 C 166.741 107.895 158.228 109.578 157.707 108.75 C 157.008 107.638 162.456 103.999 162.36 103.128 C 162.261 102.228 160.505 103.195 160.204 102.438 C 159.989 101.895 164.875 95.266 165.568 94.327 C 165.704 94.142 168.513 89.948 172.306 85.06 C 172.421 84.911 174.86 81.794 175.211 81.35 C 176.746 79.406 187.854 65.762 189.395 66.355 C 190.018 66.594 190.245 72.309 190.256 72.976 C 190.399 82.409 189.29 91.474 187.358 97.633 C 184.947 105.321 188.598 117.451 187.434 117.777 C 186.643 117.998 186.242 114.583 180.746 116.291 C 178.431 117.01 177.871 118.236 176.474 118.157 C 176.946 114.183 181.404 110.077 180.249 109.41 C 178.937 108.652 174.931 114.729 171.687 121.909 C 169.441 126.877 170.056 126.261 168.428 131.465 C 165.198 141.792 160.307 140.435 161.786 142.151 C 162.983 143.541 166.064 141.936 169.679 152.609 C 175.834 170.781 177.826 168.552 183.15 184.112 C 187.25 196.095 185.759 204.712 185.216 207.473 C 184.395 211.642 181.919 217.767 179.273 220.328 C 175.224 224.247 167.375 228.779 166.703 228.195 C 165.972 227.56 173.293 216.354 171.668 212.837 C 171.536 212.549 170.916 212.395 170.777 212.406 C 169.975 212.472 170.609 213.01 169.363 212.878 C 169.11 211.521 170.926 208.972 168.891 207.972 C 167.929 208.379 167.554 208.912 167.29 208.797 C 166.824 208.592 166.967 204.109 166.205 203.818 C 165.788 203.658 165.855 204.11 165.542 204.036 C 165.353 203.993 164.657 199.877 161.462 195.264 C 159.741 192.781 155.528 187.961 151.258 186.073 C 151.389 184.733 160.597 165.577 158.905 164.976 C 158.309 164.765 155.782 169.577 154.646 169.656 C 153.752 169.717 149.293 165.58 148.653 165.193 C 148.021 165.994 148.268 166.279 147.983 166.316 C 147.583 166.367 143.268 159.683 143.847 157.129 C 144.857 152.667 147.65 149.562 147.416 149.088 C 147.047 148.342 146.482 149.124 135.217 155.69 C 124.655 161.846 126.309 165.61 124.895 165.464 C 123.362 165.307 125.303 161.192 113.584 154.983 C 106.562 151.262 103.291 148.261 102.679 149.044 C 102.004 149.905 106.979 154.86 105.805 159.529 C 105.301 161.533 102.642 166.111 101.933 166.469 C 101.381 165.654 101.933 166.322 101.393 165.254 C 100.29 165.741 98.011 168.367 95.304 169.696 C 94.303 169.144 93.807 168.446 91.225 164.823 C 90.504 165.565 90.46 165.075 94.874 177.225 C 96.278 181.089 99.459 185.175 99.065 186.071 C 98.647 187.022 96.992 185.091 89.13 194.414 C 84.884 199.449 85.732 201.995 84.456 203.953 C 83.719 203.773 83.906 203.748 83.772 203.793 C 82.741 204.144 83.6 208.144 82.494 208.577 C 81.235 209.07 82.443 208.144 81.188 207.974 C 79.202 207.707 80.961 212.644 80.431 212.929 C 79.947 213.188 79.79 212.431 79.243 212.383 C 74.993 212.007 83.777 227.868 83.275 228.291 C 83.091 228.446 76.985 225.953 72.801 222.309 C 64.603 215.17 59.854 199.6 69.525 177.133 C 74.449 165.695 76.661 164.187 78.883 156.961 C 80.946 150.255 82.084 144.614 88.275 142.147 C 88.275 142.044 88.275 141.217 88.275 141.114 Z  M 119.949 146.453 C 121.724 145.189 119.238 139.548 114.93 138.887 C 99.177 136.471 94.706 131.495 94.177 133.134 C 93.286 135.895 112.626 138.213 119.949 146.453 Z  M 129.907 146.424 C 130.692 146.451 131.651 143.066 137.903 140.741 C 138.953 140.35 146.529 137.711 146.71 137.667 C 146.907 137.619 155.997 134.423 155.801 133.224 C 155.62 132.117 153.725 134.109 142.441 137.503 C 134.798 139.802 134.978 137.83 131.794 140.587 C 129.012 142.997 129.171 146.4 129.907 146.424 Z  M 104.099 57.693 C 100.971 59.221 88.748 56.273 88.274 57.783 C 87.935 58.861 90.381 58.612 97.182 60.854 C 104.437 63.246 107.851 67.097 108.901 68.776 C 107.357 69.704 97.503 70.767 96.405 71.854 C 97.247 72.477 101.297 72.309 106.595 74.297 C 111.852 76.268 113.299 80.229 113.388 81.192 C 110.362 83.619 103.429 81.86 101.73 84.515 C 103.029 85.68 111.602 87.366 114.92 90.626 C 115.245 90.945 119.957 94.559 120.216 112.78 C 120.224 113.321 120.244 117.019 120.248 117.29 C 120.293 120.51 120.385 120.478 120.628 120.93 C 123.451 118.431 120.776 88.484 120.227 83.236 C 119.954 80.631 117.22 67.68 114.662 62.131 C 109.384 50.68 106.719 48.536 101.198 45.065 C 91.82 39.169 76.444 46.402 77.311 48.122 C 77.973 49.436 81.009 45.684 91.999 48.989 C 98.279 50.878 103.91 56.215 104.099 57.693 Z  M 136.508 80.951 C 136.41 80.562 138.445 76.256 143.862 74.096 C 149.028 72.035 152.694 72.687 153.535 71.842 C 151.99 70.105 144.687 70.621 140.989 68.775 C 143.925 63.941 152.251 60.688 155.19 60.116 C 160.768 59.028 161.923 58.444 161.716 57.783 C 161.518 57.149 157.395 57.593 153.422 57.836 C 149.646 58.067 146.022 58.094 145.858 57.67 C 145.467 56.662 151.751 51.199 156.576 49.436 C 166.301 45.882 172.338 48.749 172.709 48.218 C 173.446 47.162 162.153 40.064 151.672 43.913 C 149.466 44.724 143.463 46.984 138.917 54.825 C 133.863 63.539 128.937 78.323 128.353 99.377 C 128.35 99.472 128.246 103.552 128.234 104.122 C 128.034 113.907 128.274 119.608 129.277 120.965 C 130.132 119.663 129.247 111.17 130.726 101.549 C 131.787 94.645 132.948 90.71 139.999 87.745 C 146.198 85.138 148.13 85.077 148.255 84.561 C 148.713 82.649 136.866 82.382 136.508 80.951 Z  M 75.14 124.978 C 75.626 125.628 76.96 129.941 77.299 131.39 C 78.621 137.023 77.772 143.723 77.691 143.961 C 77.534 143.843 71.413 137.996 70.567 137.171 C 66.428 133.137 65.962 131.674 66.244 131.152 C 66.836 130.058 68.951 132.074 71.831 130.28 C 74.059 128.892 74.133 126.09 75.14 124.978 Z  M 183.368 130.839 C 183.944 131.113 183.912 133.649 179.074 137.562 C 174.112 141.575 173.755 142.934 172.17 143.121 C 170.657 138.549 173.627 127.072 174.869 124.795 C 175.743 126.302 175.705 127.801 177.177 129.371 C 179.875 132.25 182.678 130.511 183.368 130.839 Z " fill-rule="evenodd" fill="rgb(0,0,0)"/></g></g></g></svg>